<?xml version="1.0" encoding="UTF-8"?>
<svg width="66px" height="80px" viewBox="0 0 66 80" version="1.1" xmlns="http://www.w3.org/2000/svg" xmlns:xlink="http://www.w3.org/1999/xlink">
    <!-- Generator: Sketch 41.1 (35376) - http://www.bohemiancoding.com/sketch -->
    <title>Page 1 Copy 2</title>
    <desc>Created with Sketch.</desc>
    <defs>
        <polygon id="path-1" points="65.7142314 0.051 0 0.051 0 79.9998 65.7142314 79.9998"></polygon>
    </defs>
    <g id="Page-1" stroke="none" stroke-width="1" fill="none" fill-rule="evenodd">
        <g id="Large-Device-Desktops-Copy" transform="translate(-177.000000, -1399.000000)">
            <g id="Group-6" transform="translate(176.000000, 1396.000000)">
                <g id="Page-1-Copy-2" transform="translate(1.000000, 3.000000)">
                    <path d="M61.9498267,47.9506455 C59.3305873,47.9506455 57.9317208,48.9606455 56.6983118,49.8526455 C55.5170468,50.7066455 54.4942197,51.4466455 52.2680667,51.4466455 C49.9025285,51.4466455 48.8385878,50.6936455 47.6091898,49.8206455 C46.3727724,48.9436455 44.9688921,47.9506455 42.378733,47.9506455 C39.7594936,47.9506455 38.3616299,48.9606455 37.1272181,49.8526455 C35.9459531,50.7066455 34.9231261,51.4466455 32.6959703,51.4466455 C30.3314348,51.4466455 29.2674941,50.6936455 28.0370933,49.8206455 C26.8006759,48.9436455 25.3988012,47.9506455 22.8076394,47.9506455 C20.1894027,47.9506455 18.7905363,48.9606455 17.5561244,49.8526455 C16.3748594,50.7066455 15.3530351,51.4466455 13.1248766,51.4466455 C10.7603411,51.4466455 9.69640044,50.6936455 8.46599967,49.8206455 C7.22958226,48.9436455 5.82770754,47.9506455 3.23754845,47.9506455 C2.63989656,47.9506455 2.11344146,48.0086455 1.63010554,48.1006455 C1.88280399,51.1456455 2.2147214,52.1826455 2.94173082,55.1476455 C3.03899967,55.1416455 3.13225743,55.1336455 3.23754845,55.1336455 C5.09267594,55.1336455 5.99316486,55.7716455 7.13331619,56.5786455 C8.48906341,57.5416455 10.0243068,58.6296455 13.1248766,58.6296455 C16.0990972,58.6296455 17.5922242,57.5516455 18.9078605,56.5986455 C20.0389869,55.7796455 20.9334592,55.1336455 22.8066366,55.1336455 C24.6627669,55.1336455 25.5632558,55.7716455 26.7024043,56.5786455 C28.0601571,57.5416455 29.5954004,58.6296455 32.6959703,58.6296455 C35.6691881,58.6296455 37.1613123,57.5516455 38.479957,56.5986455 C39.6100806,55.7796455 40.5055557,55.1336455 42.378733,55.1336455 C44.2348633,55.1336455 45.136355,55.7716455 46.2745008,56.5786455 C47.6312508,57.5416455 49.1664941,58.6296455 52.2680667,58.6296455 C55.2412846,58.6296455 56.7334088,57.5516455 58.0510507,56.5986455 C59.1751576,55.7846455 60.0696299,55.1416455 61.9237547,55.1346455 C62.7590634,52.1726455 63.4178844,51.1946455 63.4740396,48.0916455 L63.4740396,48.0876455 C63.0127646,48.0046455 62.5143871,47.9506455 61.9498267,47.9506455" id="Fill-1" fill="#9ADCD0"></path>
                    <g id="Group-5" transform="translate(0.000000, 0.028745)">
                        <mask id="mask-2" fill="white">
                            <use xlink:href="#path-1"></use>
                        </mask>
                        <g id="Clip-4"></g>
                        <path d="M32.8574165,7.1758 C30.2311576,9.4348 24.995687,14.1418 19.8203827,19.9788 C10.462518,30.5348 5.51484279,39.9598 5.51484279,47.2338 C5.51484279,62.2678 17.7807452,74.4998 32.8574165,74.4998 C47.9340878,74.4998 60.1989875,62.2678 60.1989875,47.2338 C60.1989875,39.9598 55.2523151,30.5348 45.8934476,19.9788 C40.719146,14.1418 35.4836754,9.4348 32.8574165,7.1758 M32.8574165,79.9998 C14.7403417,79.9998 -0.000401108647,65.3008 -0.000401108647,47.2338 C-0.000401108647,26.6608 29.8571238,2.4588 31.1286382,1.4388 L32.8574165,0.0508 L34.5861948,1.4388 C35.8577092,2.4588 65.7142314,26.6608 65.7142314,47.2338 C65.7142314,65.3008 50.9744914,79.9998 32.8574165,79.9998" id="Fill-3" fill="#9ADCD0" mask="url(#mask-2)"></path>
                    </g>
                </g>
            </g>
        </g>
    </g>
</svg>