<?xml version="1.0" encoding="UTF-8"?>
<svg width="87px" height="87px" viewBox="0 0 87 87" version="1.1" xmlns="http://www.w3.org/2000/svg" xmlns:xlink="http://www.w3.org/1999/xlink">
    <!-- Generator: Sketch 41.1 (35376) - http://www.bohemiancoding.com/sketch -->
    <title>Page 1</title>
    <desc>Created with Sketch.</desc>
    <defs>
        <polygon id="path-1" points="86.7410714 86.7408643 86.7410714 0 0.000207142857 0 0.000207142857 86.7408643"></polygon>
    </defs>
    <g id="Page-1" stroke="none" stroke-width="1" fill="none" fill-rule="evenodd">
        <g id="Large-Device-Desktops" transform="translate(-665.000000, -2853.000000)">
            <g id="Page-1" transform="translate(665.000000, 2853.000000)">
                <mask id="mask-2" fill="white">
                    <use xlink:href="#path-1"></use>
                </mask>
                <g id="Clip-2"></g>
                <path d="M77.1961357,20.0460429 C79.8082071,20.0460429 81.9262429,22.1630429 81.9262429,24.77615 C81.9262429,27.3882214 79.8082071,29.5052214 77.1961357,29.5052214 C74.5840643,29.5052214 72.4660286,27.3882214 72.4660286,24.77615 C72.4660286,22.1630429 74.5840643,20.0460429 77.1961357,20.0460429 M75.5224214,75.4888643 C75.5224214,79.0403286 72.6369214,81.9258286 69.0854571,81.9258286 C65.5339929,81.9258286 62.6484929,79.0403286 62.6484929,75.4888643 C62.6484929,71.9374 65.5339929,69.0508643 69.0854571,69.0508643 C72.6369214,69.0508643 75.5224214,71.9374 75.5224214,75.4888643 M40.1942071,50.4566857 C37.4972071,50.4566857 35.3108143,48.2713286 35.3108143,45.5732929 C35.3108143,42.8752571 37.4972071,40.6899 40.1942071,40.6899 C42.8922429,40.6899 45.0776,42.8752571 45.0776,45.5732929 C45.0776,48.2713286 42.8922429,50.4566857 40.1942071,50.4566857 M23.0344929,75.2496143 C21.1049571,75.2496143 19.5172071,73.6784357 19.5172071,71.7323286 C19.5172071,69.8027929 21.08735,68.2150429 23.0344929,68.2150429 C24.9640286,68.2150429 26.5517786,69.7851857 26.5517786,71.7323286 C26.5517786,73.6784357 24.9806,75.2496143 23.0344929,75.2496143 M4.81524286,12.9772929 C4.81524286,8.48643571 8.46924286,4.83243571 12.9601,4.83243571 C17.4509571,4.83243571 21.1049571,8.48643571 21.1049571,12.9772929 C21.1049571,17.46815 17.4509571,21.12215 12.9601,21.12215 C8.46924286,21.12215 4.81524286,17.46815 4.81524286,12.9772929 M77.1961357,34.3202571 C82.4554929,34.3202571 86.7412786,30.0344714 86.7412786,24.77615 C86.7412786,19.5167929 82.4554929,15.2310071 77.1961357,15.2310071 C71.9367786,15.2310071 67.6509929,19.5167929 67.6509929,24.77615 C67.6509929,25.6130071 67.7711357,26.41465 67.9751714,27.2007571 L47.1956357,38.8794714 C45.4369929,37.0359 42.9440286,35.8748643 40.1942071,35.8748643 C38.6924214,35.8748643 37.2921357,36.2156143 36.0285643,36.8308286 L22.9827071,21.2070786 C24.8273143,18.9699357 25.9365643,16.1020429 25.9365643,12.9772929 C25.9365643,5.82257857 20.1148143,-0.000207142857 12.9601,-0.000207142857 C5.82299286,-0.000207142857 0.000207142857,5.82257857 0.000207142857,12.9772929 C0.000207142857,20.1309714 5.82299286,25.9537571 12.9766714,25.9537571 C15.2645643,25.9537571 17.4167786,25.35615 19.2945286,24.29765 L32.3403857,39.9379714 C31.1959214,41.5267571 30.5133857,43.4728643 30.5133857,45.5898643 C30.5133857,48.1346143 31.5035286,50.4390786 33.1088857,52.18115 L25.6123857,63.8267214 C24.8097071,63.5698643 23.9386714,63.4165786 23.0510643,63.4165786 C18.4576714,63.4165786 14.7187429,67.1555071 14.7187429,71.7489 C14.7187429,76.3422929 18.4576714,80.0822571 23.0510643,80.0822571 C27.6444571,80.0822571 31.3833857,76.3422929 31.3833857,71.7489 C31.3833857,69.8027929 30.70085,68.0099714 29.5739929,66.5920786 L37.1554214,54.7932214 C38.1113857,55.1184357 39.1357071,55.2893286 40.2118143,55.2893286 C41.95285,55.2893286 43.5758143,54.8274 44.9926714,54.00815 L59.7288143,69.2559357 C58.5336,71.0487571 57.8334571,73.1833643 57.8334571,75.4888643 C57.8334571,81.7041857 62.8877429,86.7408643 69.0854571,86.7408643 C75.2842071,86.7408643 80.3374571,81.6865786 80.3374571,75.4888643 C80.3374571,69.2901143 75.2842071,64.2358286 69.0854571,64.2358286 C66.9166714,64.2358286 64.9022071,64.8676143 63.1943143,65.9261143 L48.4592071,50.6617571 C49.3633857,49.1755071 49.9102429,47.4510429 49.9102429,45.5898643 C49.9102429,44.7198643 49.7911357,43.8830071 49.5684571,43.0969 L70.3324571,31.4181857 C72.0569214,33.1934 74.4981,34.3202571 77.1961357,34.3202571" id="Fill-1" fill="#FFFFFF" mask="url(#mask-2)"></path>
            </g>
        </g>
    </g>
</svg>