<?xml version="1.0" encoding="UTF-8"?>
<svg width="73px" height="54px" viewBox="0 0 73 54" version="1.1" xmlns="http://www.w3.org/2000/svg" xmlns:xlink="http://www.w3.org/1999/xlink">
    <!-- Generator: Sketch 41.1 (35376) - http://www.bohemiancoding.com/sketch -->
    <title>Page 1</title>
    <desc>Created with Sketch.</desc>
    <defs>
        <polygon id="path-1" points="72.5850471 0.882075472 0.00323285714 0.882075472 0.00323285714 11.292434 72.5850471 11.292434 72.5850471 0.882075472"></polygon>
        <polygon id="path-3" points="72.5870286 0.448301887 72.5870286 6.22641509 0 6.22641509 0 0.448301887 72.5870286 0.448301887"></polygon>
    </defs>
    <g id="Page-1" stroke="none" stroke-width="1" fill="none" fill-rule="evenodd">
        <g id="Large-Device-Desktops" transform="translate(-429.000000, -2872.000000)">
            <g id="Page-1" transform="translate(429.000000, 2871.000000)">
                <g id="Group-3" transform="translate(0.000000, 0.156075)">
                    <mask id="mask-2" fill="white">
                        <use xlink:href="#path-1"></use>
                    </mask>
                    <g id="Clip-2"></g>
                    <path d="M13.2506471,11.292434 C9.59543286,11.292434 7.69013286,9.82403774 6.15817571,8.64413208 C4.66897571,7.49535849 3.49159,6.58941509 0.00323285714,6.58941509 L0.00323285714,0.881867925 C5.45216143,0.881867925 7.88931857,2.75913208 9.66947571,4.13101887 C10.9261186,5.09922642 11.5570471,5.58488679 13.2506471,5.58488679 C15.34679,5.58488679 16.4584757,4.79724528 17.9987757,3.70762264 C19.73409,2.47998113 21.8917614,0.953471698 25.3895043,0.953471698 C28.97589,0.953471698 31.0657757,2.51733962 32.7437329,3.77403774 C34.1714043,4.84290566 35.1141471,5.54960377 37.0257043,5.54960377 C38.9737614,5.54960377 39.93319,4.82526415 41.3848471,3.72733962 C43.02109,2.49243396 45.0567471,0.953471698 48.4533329,0.953471698 C52.0178186,0.953471698 54.1233471,2.48828302 55.8159043,3.72215094 C57.2644329,4.7775283 58.3114614,5.54026415 60.3752757,5.54233962 L60.3825757,5.54233962 C62.22739,5.54233962 63.7134614,4.62083019 65.4341757,3.553 C67.3999614,2.33469811 69.6275043,0.953471698 72.5850471,0.953471698 L72.5850471,6.66101887 C71.2679186,6.66101887 70.0321329,7.42686792 68.46889,8.39715094 C66.4186329,9.66837736 63.8678043,11.2498868 60.3825757,11.2498868 L60.3679757,11.2498868 C56.43119,11.2457358 54.2109471,9.62686792 52.4266186,8.32658491 C51.05109,7.32309434 50.1417186,6.66101887 48.4533329,6.66101887 C47.05069,6.66101887 46.2956614,7.18403774 44.85339,8.27366038 C43.1869043,9.53243396 40.9051329,11.2571509 37.0257043,11.2571509 C33.1973757,11.2571509 31.0334471,9.63620755 29.2950043,8.33488679 C27.9486757,7.32620755 27.0591186,6.66101887 25.3895043,6.66101887 C23.7230186,6.66101887 22.7688043,7.33658491 21.3223614,8.35875472 C19.4765043,9.66630189 17.1780471,11.292434 13.2506471,11.292434" id="Fill-1" fill="#FFFFFF" mask="url(#mask-2)"></path>
                </g>
                <path d="M13.2506471,33.7756038 C9.94687571,33.7756038 8.22929,32.9869245 6.71297571,32.2916415 C5.23629,31.614 3.84303286,30.9747547 0.00323285714,30.9747547 L0.00323285714,25.2672075 C5.10176143,25.2672075 7.32617571,26.2883396 9.11467571,27.1091887 C10.3734043,27.6861698 11.2056043,28.0680566 13.2506471,28.0680566 C15.6857186,28.0680566 17.0132757,27.5139057 18.5525329,26.8725849 C20.2763757,26.153434 22.23069,25.3388113 25.3895043,25.3388113 C28.6223614,25.3388113 30.5109757,26.1669245 32.1764186,26.8985283 C33.6197329,27.5315472 34.7595757,28.0327736 37.0257043,28.0327736 C39.3304186,28.0327736 40.48799,27.5201321 41.9521614,26.8715472 C43.5748471,26.1523962 45.4134043,25.3388113 48.4533329,25.3388113 C51.6695043,25.3388113 53.5737614,26.1503208 55.2527614,26.8663585 C56.76699,27.5128679 57.9631471,28.023434 60.3752757,28.0255094 L60.3909186,28.0255094 C62.5454614,28.0255094 64.13269,27.449566 65.9702043,26.7812642 C67.8317043,26.1046604 69.9403614,25.3388113 72.5850471,25.3388113 L72.5850471,31.0463585 C70.9561043,31.0463585 69.55659,31.5538113 67.9370329,32.1432453 C65.8857329,32.8883396 63.5591186,33.7330566 60.3909186,33.7330566 L60.3679757,33.7330566 C56.78159,33.7289057 54.6812757,32.8323019 52.99289,32.1121132 C51.5412329,31.4936226 50.4921186,31.0463585 48.4533329,31.0463585 C46.6325043,31.0463585 45.6470043,31.4822075 44.2850329,32.0851321 C42.6206329,32.8229623 40.5495186,33.7403208 37.0257043,33.7403208 C33.5509043,33.7403208 31.5058614,32.8426792 29.8623186,32.1204151 C28.4398614,31.4967358 27.41369,31.0463585 25.3895043,31.0463585 C23.3851329,31.0463585 22.2296471,31.5268302 20.7696471,32.1359811 C19.0176471,32.8665472 16.8380757,33.7756038 13.2506471,33.7756038" id="Fill-4" fill="#FFFFFF"></path>
                <g id="Group-8" transform="translate(0.000000, 47.891925)">
                    <mask id="mask-4" fill="white">
                        <use xlink:href="#path-3"></use>
                    </mask>
                    <g id="Clip-7"></g>
                    <polygon id="Fill-6" fill="#FFFFFF" mask="url(#mask-4)" points="72.5813971 6.22641509 -0.000417142857 6.15584906 0.00584 0.448301887 72.5876543 0.518867925"></polygon>
                </g>
            </g>
        </g>
    </g>
</svg>