<?xml version="1.0" encoding="UTF-8"?>
<svg width="101px" height="68px" viewBox="0 0 101 68" version="1.1" xmlns="http://www.w3.org/2000/svg" xmlns:xlink="http://www.w3.org/1999/xlink">
    <!-- Generator: Sketch 41.1 (35376) - http://www.bohemiancoding.com/sketch -->
    <title>Page 1</title>
    <desc>Created with Sketch.</desc>
    <defs></defs>
    <g id="Page-1" stroke="none" stroke-width="1" fill="none" fill-rule="evenodd">
        <g id="Large-Device-Desktops" transform="translate(-919.000000, -2861.000000)" fill="#FFFFFF">
            <g id="Page-1" transform="translate(919.000000, 2861.000000)">
                <g id="Group-3" transform="translate(30.575970, 0.579176)">
                    <path d="M18.6722603,9.51041827 C13.31425,16.8858772 6.65333858,27.5848453 6.67149748,32.2081654 C6.68398173,35.4417578 7.94943005,38.4761673 10.2374514,40.7536817 C12.5141235,43.0198142 15.5307707,44.2661302 18.7380863,44.2661302 L18.7846185,44.2661302 C22.0078232,44.2536101 25.0346848,42.9833922 27.3056822,40.6899432 C29.5766796,38.3942178 30.8205642,35.3507028 30.80808,32.1171104 C30.791056,27.4892375 24.0711282,16.8437642 18.6722603,9.51041827 L18.6722603,9.51041827 Z M18.7380863,49.9570707 C14.0224471,49.9570707 9.58713582,48.1245879 6.24022362,44.7931113 C2.87628745,41.4445619 1.01386529,36.9828645 0.996841326,32.229791 C0.962793389,23.2506251 14.8350578,5.08855749 16.4182869,3.04664803 L18.643887,0.173861258 L20.8876461,3.03298977 C22.4799546,5.06237916 36.4498231,23.1208716 36.4827361,32.096623 C36.500895,36.8496965 34.6725208,41.3250521 31.3324182,44.6986417 C27.9945855,48.071093 23.545655,49.9399979 18.8061822,49.9570707 L18.7380863,49.9570707 Z" id="Fill-1"></path>
                </g>
                <path d="M50.1404001,67.2729609 C34.5770882,67.2729609 27.3941084,60.2981442 21.6218482,54.693706 C18.2057052,51.3770259 15.2560189,48.5133446 11.1350836,47.559543 C7.15260989,46.6353342 4.01452503,47.5049099 3.98274696,47.5151536 C2.3416364,47.9829489 0.605191613,47.0314237 0.126250633,45.3799127 C-0.352690347,43.7272636 0.575683401,42.0006323 2.21906382,41.5100732 C2.69006029,41.370076 6.97669555,40.1738404 12.5378586,41.4588547 C18.3498414,42.8041931 22.2199569,46.5624902 25.9629601,50.1967248 C31.4401382,55.5143396 37.10458,61.0129263 50.1404001,61.0129263 C63.2840387,61.0129263 69.1675222,55.014675 74.8546626,49.2144685 C78.8518904,45.1386169 82.6266717,41.2892647 88.381908,40.2876592 C93.4210027,39.4101161 97.4568181,40.2762773 97.6270578,40.3138375 C99.3101608,40.686025 100.374726,42.3546088 100.004739,44.0436799 C99.6336162,45.732751 97.9664022,46.7992333 96.2855691,46.428184 C96.2696801,46.4247694 93.2291993,45.7964896 89.4510132,46.4543623 C85.6705573,47.1133732 82.8616025,49.9770545 79.3058629,53.6033218 C73.3338548,59.6937663 65.9011902,67.2729609 50.1404001,67.2729609" id="Fill-4"></path>
            </g>
        </g>
    </g>
</svg>