<?xml version="1.0" encoding="UTF-8"?>
<svg width="81px" height="71px" viewBox="0 0 81 71" version="1.1" xmlns="http://www.w3.org/2000/svg" xmlns:xlink="http://www.w3.org/1999/xlink">
    <!-- Generator: Sketch 41.1 (35376) - http://www.bohemiancoding.com/sketch -->
    <title>noun_561074_cc copy 8</title>
    <desc>Created with Sketch.</desc>
    <defs></defs>
    <g id="Page-1" stroke="none" stroke-width="1" fill="none" fill-rule="evenodd">
        <g id="Large-Device-Desktops" transform="translate(-664.000000, -2859.000000)" fill="#FFFFFF">
            <g id="noun_561074_cc-copy-8" transform="translate(664.000000, 2859.000000)">
                <g id="Group">
                    <g id="Shape">
                        <path d="M40.5,48.1785714 C36.3234375,48.1785714 32.90625,44.7553571 32.90625,40.5714286 C32.90625,36.3875 36.3234375,32.9642857 40.5,32.9642857 C44.6765625,32.9642857 48.09375,36.3875 48.09375,40.5714286 C48.09375,44.7553571 44.701875,48.1785714 40.5,48.1785714 L40.5,48.1785714 Z M40.5,38.0357143 C39.1078125,38.0357143 37.96875,39.1767857 37.96875,40.5714286 C37.96875,41.9660714 39.1078125,43.1071429 40.5,43.1071429 C41.8921875,43.1071429 43.03125,41.9660714 43.03125,40.5714286 C43.03125,39.1767857 41.8921875,38.0357143 40.5,38.0357143 L40.5,38.0357143 Z"></path>
                        <path d="M40.5,71 C17.5415625,71 9.9225,55.6082143 7.7203125,48.99 C7.29,47.6714286 7.99875,46.2260714 9.315,45.795 C10.6565625,45.3385714 12.0740625,46.0739286 12.5296875,47.3925 C14.833125,54.315 21.5409375,65.9285714 40.5,65.9285714 C59.4590625,65.9285714 66.166875,54.315 68.4703125,47.3671429 C68.900625,46.0485714 70.3434375,45.3132143 71.685,45.7696429 C73.00125,46.2007143 73.7353125,47.6460714 73.2796875,48.9646429 C71.0775,55.6082143 63.48375,71 40.5,71 L40.5,71 Z"></path>
                        <path d="M75.9375,43.1071429 C75.9375,40.3939286 67.7615625,15.2142857 40.5,15.2142857 C13.2384375,15.2142857 5.0625,40.3939286 5.0625,43.1071429 C5.0625,44.5017857 3.9234375,45.6428571 2.53125,45.6428571 C1.1390625,45.6428571 0,44.5017857 0,43.1071429 C0,37.3003571 10.5553125,10.1428571 40.5,10.1428571 C70.4446875,10.1428571 81,37.3003571 81,43.1071429 C81,44.5017857 79.8609375,45.6428571 78.46875,45.6428571 C77.0765625,45.6428571 75.9375,44.5017857 75.9375,43.1071429 Z"></path>
                        <path d="M40.5,15.2142857 C39.1078125,15.2142857 37.96875,14.0732143 37.96875,12.6785714 L37.96875,2.53571429 C37.96875,1.14107143 39.1078125,0 40.5,0 C41.8921875,0 43.03125,1.14107143 43.03125,2.53571429 L43.03125,12.6785714 C43.03125,14.0732143 41.8921875,15.2142857 40.5,15.2142857 L40.5,15.2142857 Z"></path>
                        <path d="M51.080625,16.2539286 C50.8528125,16.2539286 50.6503125,16.2285714 50.4225,16.1778571 C49.0809375,15.8228571 48.2709375,14.4282143 48.6253125,13.0842857 L51.1565625,3.62607143 C51.5109375,2.28214286 52.903125,1.47071429 54.2446875,1.82571429 C55.58625,2.18071429 56.39625,3.57535714 56.041875,4.91928571 L53.510625,14.3775 C53.206875,15.5185714 52.194375,16.2539286 51.080625,16.2539286 L51.080625,16.2539286 Z"></path>
                        <path d="M60.75,20.6407143 C60.3196875,20.6407143 59.889375,20.5392857 59.484375,20.3110714 C58.269375,19.6010714 57.864375,18.0542857 58.5478125,16.8371429 L63.6103125,8.06357143 C64.3190625,6.84642857 65.863125,6.44071429 67.078125,7.12535714 C68.293125,7.83535714 68.698125,9.38214286 68.0146875,10.5992857 L62.9521875,19.3728571 C62.47125,20.1842857 61.610625,20.6407143 60.75,20.6407143 L60.75,20.6407143 Z"></path>
                        <path d="M69.1284375,27.0814286 C68.4703125,27.0814286 67.8375,26.8278571 67.33125,26.3460714 C66.3440625,25.3571429 66.3440625,23.7596429 67.33125,22.7707143 L74.4946875,15.5946429 C75.481875,14.6057143 77.0765625,14.6057143 78.06375,15.5946429 C79.0509375,16.5835714 79.0509375,18.1810714 78.06375,19.17 L70.9003125,26.3460714 C70.4446875,26.8532143 69.7865625,27.0814286 69.1284375,27.0814286 L69.1284375,27.0814286 Z"></path>
                        <path d="M29.919375,16.2539286 C28.805625,16.2539286 27.7678125,15.5185714 27.4640625,14.3775 L24.9328125,4.91928571 C24.5784375,3.57535714 25.363125,2.18071429 26.73,1.82571429 C28.0715625,1.47071429 29.46375,2.25678571 29.818125,3.62607143 L32.349375,13.0842857 C32.70375,14.4282143 31.9190625,15.8228571 30.5521875,16.1778571 C30.3496875,16.2285714 30.1471875,16.2539286 29.919375,16.2539286 L29.919375,16.2539286 Z"></path>
                        <path d="M20.25,20.6407143 C19.3640625,20.6407143 18.52875,20.1842857 18.0478125,19.3728571 L12.9853125,10.5992857 C12.301875,9.38214286 12.706875,7.83535714 13.921875,7.12535714 C15.136875,6.44071429 16.6809375,6.84642857 17.3896875,8.06357143 L22.4521875,16.8371429 C23.1609375,18.0542857 22.730625,19.6010714 21.515625,20.3110714 C21.110625,20.5392857 20.6803125,20.6407143 20.25,20.6407143 L20.25,20.6407143 Z"></path>
                        <path d="M11.8715625,27.1067857 C11.2134375,27.1067857 10.580625,26.8532143 10.074375,26.3714286 L2.9109375,19.17 C1.92375,18.1810714 1.92375,16.5835714 2.9109375,15.5946429 C3.898125,14.6057143 5.4928125,14.6057143 6.48,15.5946429 L13.6434375,22.7707143 C14.630625,23.7596429 14.630625,25.3571429 13.6434375,26.3460714 C13.1625,26.8532143 12.504375,27.1067857 11.8715625,27.1067857 L11.8715625,27.1067857 Z"></path>
                        <path d="M40.5,58.3214286 C30.729375,58.3214286 22.78125,50.3592857 22.78125,40.5714286 C22.78125,30.7835714 30.729375,22.8214286 40.5,22.8214286 C41.8921875,22.8214286 43.03125,23.9625 43.03125,25.3571429 C43.03125,26.7517857 41.8921875,27.8928571 40.5,27.8928571 C33.51375,27.8928571 27.84375,33.5728571 27.84375,40.5714286 C27.84375,47.57 33.51375,53.25 40.5,53.25 C47.48625,53.25 53.15625,47.57 53.15625,40.5714286 C53.15625,39.1767857 54.2953125,38.0357143 55.6875,38.0357143 C57.0796875,38.0357143 58.21875,39.1767857 58.21875,40.5714286 C58.21875,50.3592857 50.270625,58.3214286 40.5,58.3214286 L40.5,58.3214286 Z"></path>
                        <path d="M53.7890625,35.7282143 C52.903125,35.7282143 52.0425,35.2464286 51.5615625,34.435 C50.4225,32.3557143 48.70125,30.6567857 46.6509375,29.5157143 C45.4359375,28.8310714 44.9803125,27.2842857 45.66375,26.0671429 C46.3471875,24.85 47.89125,24.3935714 49.10625,25.0782143 C51.991875,26.7010714 54.37125,29.0846429 55.99125,31.9753571 C56.6746875,33.1925 56.2190625,34.7392857 55.0040625,35.4239286 C54.624375,35.6267857 54.1940625,35.7282143 53.7890625,35.7282143 L53.7890625,35.7282143 Z"></path>
                    </g>
                </g>
            </g>
        </g>
    </g>
</svg>